
      <svg width="600" height="400" xmlns="http://www.w3.org/2000/svg">
        
      <defs>
        <linearGradient id="goldGradient" x1="0%" y1="0%" x2="100%" y2="100%">
          <stop offset="0%" style="stop-color:#FFD700;stop-opacity:1" />
          <stop offset="50%" style="stop-color:#FFA500;stop-opacity:1" />
          <stop offset="100%" style="stop-color:#FF8C00;stop-opacity:1" />
        </linearGradient>
        <linearGradient id="silverGradient" x1="0%" y1="0%" x2="100%" y2="100%">
          <stop offset="0%" style="stop-color:#E5E5E5;stop-opacity:1" />
          <stop offset="50%" style="stop-color:#C0C0C0;stop-opacity:1" />
          <stop offset="100%" style="stop-color:#A0A0A0;stop-opacity:1" />
        </linearGradient>
        <radialGradient id="gemGradient" cx="50%" cy="30%" r="70%">
          <stop offset="0%" style="stop-color:#87CEEB;stop-opacity:0.9" />
          <stop offset="50%" style="stop-color:#4169E1;stop-opacity:0.7" />
          <stop offset="100%" style="stop-color:#191970;stop-opacity:0.8" />
        </radialGradient>
      </defs>
    
        <rect width="100%" height="100%" fill="#f8f8f8"/>
        
        <!-- Display case -->
        <rect x="50" y="80" width="300" height="150" 
              fill="none" stroke="#8B4513" stroke-width="3" rx="10"/>
        
        <!-- Jewelry pieces in display -->
        <circle cx="120" cy="140" r="20" fill="url(#goldGradient)" stroke="#B8860B" stroke-width="2"/>
        <polygon points="200,120 220,140 200,180 180,140" fill="url(#gemGradient)" stroke="#000080"/>
        <ellipse cx="280" cy="150" rx="25" ry="15" fill="url(#silverGradient)" stroke="#B8860B"/>
        
        <!-- Sparkle effects -->
        <g stroke="#FFD700" stroke-width="2" fill="none">
          <path d="M 100 100 L 110 100 M 105 95 L 105 105"/>
          <path d="M 300 110 L 310 110 M 305 105 L 305 115"/>
          <path d="M 150 200 L 160 200 M 155 195 L 155 205"/>
        </g>
        
        <text x="300" y="50" text-anchor="middle" 
              font-family="serif" font-size="18" font-weight="bold" fill="#B8860B">
          6side Jewelry Collection
        </text>
      </svg>
    